<?xml version="1.0" encoding="UTF-8" standalone="no"?>
<!DOCTYPE svg PUBLIC "-//W3C//DTD SVG 1.1//EN"
 "http://www.w3.org/Graphics/SVG/1.1/DTD/svg11.dtd">
<!-- Generated by graphviz version 2.40.1 (20161225.0304)
 -->
<!-- Title: models_diagram Pages: 1 -->
<svg width="1032pt" height="422pt"
 viewBox="0.00 0.00 1032.15 422.00" xmlns="http://www.w3.org/2000/svg" xmlns:xlink="http://www.w3.org/1999/xlink">
<g id="graph0" class="graph" transform="scale(1 1) rotate(0) translate(4 418)">
<title>models_diagram</title>
<polygon fill="transparent" stroke="transparent" points="-4,4 -4,-418 1028.1542,-418 1028.1542,4 -4,4"/>
<!-- Payment -->
<g id="node1" class="node">
<title>Payment</title>
<ellipse fill="none" stroke="#000000" cx="288.0643" cy="-18" rx="41.1093" ry="18"/>
<text text-anchor="middle" x="288.0643" y="-13.8" font-family="Times,serif" font-size="14.00" fill="#000000">Payment</text>
</g>
<!-- Image -->
<g id="node2" class="node">
<title>Image</title>
<ellipse fill="none" stroke="#000000" cx="558.0643" cy="-91" rx="32.4063" ry="18"/>
<text text-anchor="middle" x="558.0643" y="-86.8" font-family="Times,serif" font-size="14.00" fill="#000000">Image</text>
</g>
<!-- Category -->
<g id="node3" class="node">
<title>Category</title>
<ellipse fill="none" stroke="#000000" cx="544.0643" cy="-323" rx="42.5456" ry="18"/>
<text text-anchor="middle" x="544.0643" y="-318.8" font-family="Times,serif" font-size="14.00" fill="#000000">Category</text>
</g>
<!-- Category&#45;&gt;Image -->
<g id="edge2" class="edge">
<title>Category&#45;&gt;Image</title>
<path fill="none" stroke="#b5daf4" d="M552.1086,-296.958C554.5311,-287.8867 556.8641,-277.5811 558.0643,-268 564.7197,-214.8745 562.3157,-152.0737 560.1012,-117.3765"/>
<ellipse fill="none" stroke="#b5daf4" cx="550.9672" cy="-301.0338" rx="4" ry="4"/>
<ellipse fill="#b5daf4" stroke="#b5daf4" cx="559.8174" cy="-113.1746" rx="4" ry="4"/>
</g>
<!-- SubCategory -->
<g id="node12" class="node">
<title>SubCategory</title>
<ellipse fill="none" stroke="#000000" cx="493.0643" cy="-250" rx="56.07" ry="18"/>
<text text-anchor="middle" x="493.0643" y="-245.8" font-family="Times,serif" font-size="14.00" fill="#000000">SubCategory</text>
</g>
<!-- Category&#45;&gt;SubCategory -->
<g id="edge1" class="edge">
<title>Category&#45;&gt;SubCategory</title>
<path fill="none" stroke="#826f18" d="M527.243,-298.9224C522.1236,-291.5946 516.4743,-283.5083 511.268,-276.0562"/>
<ellipse fill="none" stroke="#826f18" cx="529.6872" cy="-302.421" rx="4" ry="4"/>
<polygon fill="#826f18" stroke="#826f18" points="511.1453,-275.8805 509.1071,-265.1057 508.2817,-271.7817 505.4181,-267.6829 505.4181,-267.6829 505.4181,-267.6829 508.2817,-271.7817 501.7292,-270.2601 511.1453,-275.8805 511.1453,-275.8805"/>
</g>
<!-- Item -->
<g id="node4" class="node">
<title>Item</title>
<ellipse fill="none" stroke="#000000" cx="484.0643" cy="-177" rx="27" ry="18"/>
<text text-anchor="middle" x="484.0643" y="-172.8" font-family="Times,serif" font-size="14.00" fill="#000000">Item</text>
</g>
<!-- Item&#45;&gt;Image -->
<g id="edge3" class="edge">
<title>Item&#45;&gt;Image</title>
<path fill="none" stroke="#02e3f7" d="M502.5011,-154.7814C509.787,-146.0722 518.2674,-136.0227 526.0643,-127 529.8113,-122.6639 533.8454,-118.0695 537.7444,-113.6658"/>
<ellipse fill="none" stroke="#02e3f7" cx="499.7565" cy="-158.07" rx="4" ry="4"/>
<ellipse fill="#02e3f7" stroke="#02e3f7" cx="540.6536" cy="-110.3925" rx="4" ry="4"/>
</g>
<!-- Order -->
<g id="node8" class="node">
<title>Order</title>
<ellipse fill="none" stroke="#000000" cx="253.0643" cy="-91" rx="30.9619" ry="18"/>
<text text-anchor="middle" x="253.0643" y="-86.8" font-family="Times,serif" font-size="14.00" fill="#000000">Order</text>
</g>
<!-- Item&#45;&gt;Order -->
<g id="edge4" class="edge">
<title>Item&#45;&gt;Order</title>
<path fill="none" stroke="#0fd5a4" d="M452.6444,-165.3025C409.9323,-149.4011 333.739,-121.0347 288.8662,-104.3288"/>
<ellipse fill="none" stroke="#0fd5a4" cx="456.4647" cy="-166.7248" rx="4" ry="4"/>
<polygon fill="#0fd5a4" stroke="#0fd5a4" points="288.622,-104.238 280.8205,-96.5317 283.9362,-102.4935 279.2504,-100.7489 279.2504,-100.7489 279.2504,-100.7489 283.9362,-102.4935 277.6804,-104.9662 288.622,-104.238 288.622,-104.238"/>
</g>
<!-- ProductType -->
<g id="node5" class="node">
<title>ProductType</title>
<ellipse fill="none" stroke="#000000" cx="579.0643" cy="-396" rx="55.3415" ry="18"/>
<text text-anchor="middle" x="579.0643" y="-391.8" font-family="Times,serif" font-size="14.00" fill="#000000">ProductType</text>
</g>
<!-- ProductType&#45;&gt;Image -->
<g id="edge6" class="edge">
<title>ProductType&#45;&gt;Image</title>
<path fill="none" stroke="#3fc51e" d="M597.8387,-371.8732C606.5733,-358.2907 615.0643,-340.5687 615.0643,-323 615.0643,-323 615.0643,-323 615.0643,-177 615.0643,-151.6989 597.7114,-128.1364 582.1549,-112.0965"/>
<ellipse fill="none" stroke="#3fc51e" cx="595.5378" cy="-375.2655" rx="4" ry="4"/>
<ellipse fill="#3fc51e" stroke="#3fc51e" cx="578.9464" cy="-108.93" rx="4" ry="4"/>
</g>
<!-- ProductType&#45;&gt;Category -->
<g id="edge5" class="edge">
<title>ProductType&#45;&gt;Category</title>
<path fill="none" stroke="#dded1a" d="M566.9421,-370.7164C563.771,-364.1025 560.339,-356.9443 557.1215,-350.2336"/>
<ellipse fill="none" stroke="#dded1a" cx="568.6833" cy="-374.3482" rx="4" ry="4"/>
<polygon fill="#dded1a" stroke="#dded1a" points="556.9399,-349.8545 556.6742,-338.8919 554.7782,-345.346 552.6165,-340.8374 552.6165,-340.8374 552.6165,-340.8374 554.7782,-345.346 548.5588,-342.7829 556.9399,-349.8545 556.9399,-349.8545"/>
</g>
<!-- Review -->
<g id="node6" class="node">
<title>Review</title>
<ellipse fill="none" stroke="#000000" cx="62.0643" cy="-18" rx="37.2421" ry="18"/>
<text text-anchor="middle" x="62.0643" y="-13.8" font-family="Times,serif" font-size="14.00" fill="#000000">Review</text>
</g>
<!-- Cancellation -->
<g id="node7" class="node">
<title>Cancellation</title>
<ellipse fill="none" stroke="#000000" cx="416.0643" cy="-18" rx="54.599" ry="18"/>
<text text-anchor="middle" x="416.0643" y="-13.8" font-family="Times,serif" font-size="14.00" fill="#000000">Cancellation</text>
</g>
<!-- Order&#45;&gt;Payment -->
<g id="edge9" class="edge">
<title>Order&#45;&gt;Payment</title>
<path fill="none" stroke="#336170" d="M265.0385,-66.0253C268.5415,-58.7191 272.3736,-50.7263 275.889,-43.3944"/>
<ellipse fill="none" stroke="#336170" cx="263.2662" cy="-69.7219" rx="4" ry="4"/>
<ellipse fill="#336170" stroke="#336170" cx="277.8192" cy="-39.3684" rx="4" ry="4"/>
</g>
<!-- Order&#45;&gt;Review -->
<g id="edge8" class="edge">
<title>Order&#45;&gt;Review</title>
<path fill="none" stroke="#153c62" d="M219.4555,-78.1547C186.3103,-65.4867 135.6925,-46.1406 100.8573,-32.8266"/>
<ellipse fill="none" stroke="#153c62" cx="223.5688" cy="-79.7268" rx="4" ry="4"/>
<polygon fill="#153c62" stroke="#153c62" points="100.8191,-32.8121 93.0847,-25.0385 96.1486,-31.027 91.4781,-29.2419 91.4781,-29.2419 91.4781,-29.2419 96.1486,-31.027 89.8715,-33.4454 100.8191,-32.8121 100.8191,-32.8121"/>
</g>
<!-- Order&#45;&gt;Cancellation -->
<g id="edge10" class="edge">
<title>Order&#45;&gt;Cancellation</title>
<path fill="none" stroke="#c63341" d="M285.4776,-76.4836C310.896,-65.0999 346.4668,-49.1695 374.066,-36.8091"/>
<ellipse fill="none" stroke="#c63341" cx="281.4711" cy="-78.2779" rx="4" ry="4"/>
<polygon fill="#c63341" stroke="#c63341" points="374.3395,-36.6866 385.3054,-36.7062 378.9028,-34.6429 383.466,-32.5992 383.466,-32.5992 383.466,-32.5992 378.9028,-34.6429 381.6267,-28.4923 374.3395,-36.6866 374.3395,-36.6866"/>
</g>
<!-- LineItem -->
<g id="node13" class="node">
<title>LineItem</title>
<ellipse fill="none" stroke="#000000" cx="186.0643" cy="-18" rx="42.5369" ry="18"/>
<text text-anchor="middle" x="186.0643" y="-13.8" font-family="Times,serif" font-size="14.00" fill="#000000">LineItem</text>
</g>
<!-- Order&#45;&gt;LineItem -->
<g id="edge7" class="edge">
<title>Order&#45;&gt;LineItem</title>
<path fill="none" stroke="#5a7a20" d="M232.5672,-68.6673C224.9327,-60.3491 216.2317,-50.8689 208.4373,-42.3766"/>
<ellipse fill="none" stroke="#5a7a20" cx="235.4901" cy="-71.852" rx="4" ry="4"/>
<polygon fill="#5a7a20" stroke="#5a7a20" points="208.3526,-42.2842 204.906,-31.874 204.9716,-38.6005 201.5907,-34.9168 201.5907,-34.9168 201.5907,-34.9168 204.9716,-38.6005 198.2754,-37.9596 208.3526,-42.2842 208.3526,-42.2842"/>
</g>
<!-- AdminUser -->
<g id="node9" class="node">
<title>AdminUser</title>
<ellipse fill="none" stroke="#000000" cx="704.0643" cy="-396" rx="51.2415" ry="18"/>
<text text-anchor="middle" x="704.0643" y="-391.8" font-family="Times,serif" font-size="14.00" fill="#000000">AdminUser</text>
</g>
<!-- ApplicationRecord -->
<g id="node10" class="node">
<title>ApplicationRecord</title>
<ellipse fill="none" stroke="#000000" cx="851.0643" cy="-396" rx="77.2916" ry="18"/>
<text text-anchor="middle" x="851.0643" y="-391.8" font-family="Times,serif" font-size="14.00" fill="#000000">ApplicationRecord</text>
</g>
<!-- Address -->
<g id="node11" class="node">
<title>Address</title>
<ellipse fill="none" stroke="#000000" cx="985.0643" cy="-396" rx="39.18" ry="18"/>
<text text-anchor="middle" x="985.0643" y="-391.8" font-family="Times,serif" font-size="14.00" fill="#000000">Address</text>
</g>
<!-- SubCategory&#45;&gt;Image -->
<g id="edge12" class="edge">
<title>SubCategory&#45;&gt;Image</title>
<path fill="none" stroke="#8777ea" d="M506.2725,-224.5196C510.8563,-215.3161 515.8894,-204.7836 520.0643,-195 531.3037,-168.6615 542.33,-137.7599 549.5853,-116.5245"/>
<ellipse fill="none" stroke="#8777ea" cx="504.3568" cy="-228.3203" rx="4" ry="4"/>
<ellipse fill="#8777ea" stroke="#8777ea" cx="550.8896" cy="-112.6771" rx="4" ry="4"/>
</g>
<!-- SubCategory&#45;&gt;Item -->
<g id="edge11" class="edge">
<title>SubCategory&#45;&gt;Item</title>
<path fill="none" stroke="#294828" d="M489.8475,-223.9079C489.0937,-217.7936 488.2874,-211.2541 487.5235,-205.058"/>
<ellipse fill="none" stroke="#294828" cx="490.3501" cy="-227.9851" rx="4" ry="4"/>
<polygon fill="#294828" stroke="#294828" points="487.5184,-205.0152 490.7608,-194.5397 486.9065,-200.0528 486.2947,-195.0904 486.2947,-195.0904 486.2947,-195.0904 486.9065,-200.0528 481.8285,-195.641 487.5184,-205.0152 487.5184,-205.0152"/>
</g>
<!-- User -->
<g id="node14" class="node">
<title>User</title>
<ellipse fill="none" stroke="#000000" cx="218.0643" cy="-250" rx="27" ry="18"/>
<text text-anchor="middle" x="218.0643" y="-245.8" font-family="Times,serif" font-size="14.00" fill="#000000">User</text>
</g>
<!-- User&#45;&gt;Item -->
<g id="edge18" class="edge">
<title>User&#45;&gt;Item</title>
<path fill="none" stroke="#5214d9" d="M253.1871,-246.8334C307.7787,-241.5031 410.1422,-229.7576 443.0643,-214 450.1993,-210.585 456.9936,-205.5284 462.9258,-200.243"/>
<ellipse fill="none" stroke="#5214d9" cx="249.155" cy="-247.2207" rx="4" ry="4"/>
<polygon fill="#5214d9" stroke="#5214d9" points="463.2231,-199.9571 473.5507,-196.2703 466.8275,-196.4918 470.4319,-193.0264 470.4319,-193.0264 470.4319,-193.0264 466.8275,-196.4918 467.3131,-189.7825 463.2231,-199.9571 463.2231,-199.9571"/>
</g>
<!-- User&#45;&gt;Review -->
<g id="edge13" class="edge">
<title>User&#45;&gt;Review</title>
<path fill="none" stroke="#0e4bf1" d="M187.6397,-236.5408C170.2294,-227.3003 149.4508,-213.3763 137.0643,-195 104.5518,-146.7653 81.5452,-82.1638 70.1715,-45.8406"/>
<ellipse fill="none" stroke="#0e4bf1" cx="191.2954" cy="-238.4001" rx="4" ry="4"/>
<polygon fill="#0e4bf1" stroke="#0e4bf1" points="70.0721,-45.5157 71.4484,-34.6365 68.6087,-40.7346 67.1454,-35.9535 67.1454,-35.9535 67.1454,-35.9535 68.6087,-40.7346 62.8424,-37.2706 70.0721,-45.5157 70.0721,-45.5157"/>
</g>
<!-- User&#45;&gt;Review -->
<g id="edge14" class="edge">
<title>User&#45;&gt;Review</title>
<path fill="none" stroke="#5688bb" d="M183.8645,-243.7378C134.6725,-232.689 45.6089,-204.5863 6.871,-141 -13.1035,-108.2129 15.1792,-66.9438 38.0785,-41.5233"/>
<ellipse fill="none" stroke="#5688bb" cx="187.7838" cy="-244.5837" rx="4" ry="4"/>
<polygon fill="#5688bb" stroke="#5688bb" points="38.1237,-41.4749 48.2401,-37.2431 41.5383,-37.8224 44.9529,-34.1699 44.9529,-34.1699 44.9529,-34.1699 41.5383,-37.8224 41.6657,-31.0968 38.1237,-41.4749 38.1237,-41.4749"/>
<text text-anchor="middle" x="52.161" y="-129.8" font-family="Times,serif" font-size="14.00" fill="#000000">reviews_written</text>
</g>
<!-- User&#45;&gt;Cancellation -->
<g id="edge19" class="edge">
<title>User&#45;&gt;Cancellation</title>
<path fill="none" stroke="#ef1509" d="M252.048,-243.2869C296.0972,-233.8825 369.376,-215.6091 387.0643,-195 423.0272,-153.0989 423.0826,-84.319 419.7204,-46.0024"/>
<ellipse fill="none" stroke="#ef1509" cx="248.0978" cy="-244.1162" rx="4" ry="4"/>
<polygon fill="#ef1509" stroke="#ef1509" points="419.7202,-45.9994 423.1853,-35.5954 419.2143,-41.025 418.7084,-36.0507 418.7084,-36.0507 418.7084,-36.0507 419.2143,-41.025 414.2315,-36.5059 419.7202,-45.9994 419.7202,-45.9994"/>
</g>
<!-- User&#45;&gt;Order -->
<g id="edge15" class="edge">
<title>User&#45;&gt;Order</title>
<path fill="none" stroke="#4debca" d="M220.9299,-223.3135C223.1618,-205.066 226.7149,-180.4022 231.6503,-159 234.7791,-145.4319 239.2935,-130.6567 243.3714,-118.3557"/>
<ellipse fill="none" stroke="#4debca" cx="220.4083" cy="-227.741" rx="4" ry="4"/>
<polygon fill="#4debca" stroke="#4debca" points="243.4395,-118.1549 250.9153,-110.1322 245.0468,-113.4202 246.6541,-108.6856 246.6541,-108.6856 246.6541,-108.6856 245.0468,-113.4202 242.393,-107.239 243.4395,-118.1549 243.4395,-118.1549"/>
<text text-anchor="middle" x="268.7714" y="-172.8" font-family="Times,serif" font-size="14.00" fill="#000000">driver_orders</text>
</g>
<!-- User&#45;&gt;Order -->
<g id="edge16" class="edge">
<title>User&#45;&gt;Order</title>
<path fill="none" stroke="#469b04" d="M250.2212,-239.4013C270.4693,-230.8651 294.9855,-216.6636 307.0643,-195 322.5941,-167.1471 298.8605,-134.4117 278.1234,-113.2156"/>
<ellipse fill="none" stroke="#469b04" cx="246.4201" cy="-240.9173" rx="4" ry="4"/>
<polygon fill="#469b04" stroke="#469b04" points="277.8495,-112.9479 273.8423,-102.7404 274.2734,-109.4534 270.6972,-105.9589 270.6972,-105.9589 270.6972,-105.9589 274.2734,-109.4534 267.5522,-109.1775 277.8495,-112.9479 277.8495,-112.9479"/>
<text text-anchor="middle" x="347.2162" y="-172.8" font-family="Times,serif" font-size="14.00" fill="#000000">seller_orders</text>
</g>
<!-- User&#45;&gt;Order -->
<g id="edge17" class="edge">
<title>User&#45;&gt;Order</title>
<path fill="none" stroke="#d2da87" d="M188.6192,-235.9092C172.9264,-226.6679 155.0712,-212.9567 146.202,-195 139.1165,-180.6544 138.5025,-173.0256 146.202,-159 161.0558,-131.942 191.748,-114.1126 216.4443,-103.5263"/>
<ellipse fill="none" stroke="#d2da87" cx="192.1472" cy="-237.8852" rx="4" ry="4"/>
<polygon fill="#d2da87" stroke="#d2da87" points="216.6436,-103.4456 227.6017,-103.8592 221.2774,-101.5672 225.9111,-99.6888 225.9111,-99.6888 225.9111,-99.6888 221.2774,-101.5672 224.2205,-95.5184 216.6436,-103.4456 216.6436,-103.4456"/>
<text text-anchor="middle" x="183.9955" y="-172.8" font-family="Times,serif" font-size="14.00" fill="#000000">buyer_orders</text>
</g>
</g>
</svg>
